<svg width="79" height="92" viewBox="0 0 79 92" fill="none" xmlns="http://www.w3.org/2000/svg">
<path d="M23.0455 3.47273C24.7673 5.08186 26.8102 4.37765 28.3372 2.93522C29.8643 1.49279 29.6218 0.295301 32.3035 0.48581C34.9853 0.67632 36.0375 4.30961 39.6724 4.05446C42.9178 3.82653 44.1682 0.142212 46.8499 0.264683C49.3096 0.373546 50.7479 4.85393 53.5219 4.60218C55.4452 4.42868 57.2046 0.713741 59.2031 0.302104C62.9576 -0.47014 63.2002 2.14256 65.5403 3.81293C69.4348 6.59913 71.4436 -1.24919 75.6285 1.40094C78.1873 3.02027 77.5382 5.8575 77.6748 8.2899C78.6416 25.5582 77.8627 43.7077 77.9276 61.1053C77.9516 67.1846 78.4298 73.3524 78.2078 79.4759C78.1292 81.6225 78.0472 85.2864 77.5723 87.263C77.2136 88.753 75.526 90.4302 73.9375 90.4778C70.6886 90.5697 69.0898 84.1876 65.5744 87.0316C63.2206 88.9367 63.412 91.74 59.1621 91.0596C56.5453 90.6411 56.0055 86.0893 52.5551 86.7969C50.7991 87.1575 50.1296 89.2633 48.7699 90.1648C44.6943 92.866 43.543 87.1881 39.6997 86.9806C36.4235 86.8037 34.8589 90.6139 32.5495 90.8316C29.632 91.1038 27.6847 87.0895 25.126 86.9738C22.0821 86.8377 21.2656 92.9885 16.3838 90.3622C14.1051 89.1375 12.9641 85.5858 9.78013 87.2426C7.30676 88.5285 6.4971 91.5869 3.16625 90.0288C0.467408 88.7666 1.10966 85.9124 0.962765 83.5514C-0.256839 64.065 0.426413 43.4321 0.720211 23.8539C0.798785 18.5434 0.651886 13.3078 0.962765 8.02115C1.11308 5.47989 0.385418 3.4149 2.74947 1.63907C6.40486 -1.10971 8.45803 5.11247 11.5122 4.53414C14.252 4.01364 15.6595 -0.48715 19.6463 0.359938C21.696 0.795388 21.8771 2.3841 23.0455 3.47273ZM74.6139 73.9817L74.3713 4.94578C73.5343 4.34703 70.3675 7.25571 69.4143 7.68776C64.6145 9.85821 63.1387 4.31301 60.1255 4.14632C58.8922 4.07828 58.1953 5.45947 57.3447 6.10585C53.9353 8.69133 51.3867 8.06537 48.2574 5.48329C47.7553 5.06825 47.827 4.35044 46.8499 4.33683C45.5176 4.31982 45.012 5.43566 44.1682 5.96977C41.7734 7.48364 39.1121 7.82724 36.4406 6.82026C35.0843 6.30996 34.2576 5.1567 33.3762 4.77228C30.9712 3.72447 27.268 8.43959 23.715 7.52106C21.9967 7.0754 20.1929 4.66001 18.4574 4.59538C16.394 4.51713 14.638 7.5857 12.4858 8.03816C10.9246 8.36815 9.80404 7.89187 8.37946 7.38838C7.93876 7.04479 4.61474 4.4559 4.2902 4.83692C3.99299 6.87129 4.06814 8.90906 4.03398 10.9604C3.65819 33.2093 3.43614 55.686 4.04423 77.9246C4.07839 79.1187 3.84267 85.5518 4.14672 85.9872C5.0042 87.2153 7.32042 84.6741 8.04125 84.2284C10.6752 82.5921 12.9333 82.8166 15.2906 84.8238C16.2881 85.6709 16.8654 87.2255 18.2388 87.2698C19.7658 87.3208 20.8181 85.4021 22.0172 84.6469C23.7834 83.5378 26.062 83.3031 27.9956 84.1366C29.0717 84.6026 31.2445 86.8683 31.8184 86.9296C33.1063 87.0657 36.0921 84.5074 37.5338 84.0549C41.6094 82.7758 42.3883 84.7591 45.2853 86.2798C47.8509 87.6236 48.2369 85.3817 50.3106 84.2999C53.1222 82.8336 55.5375 83.4596 57.8674 85.4633C58.25 85.7899 58.4789 86.5179 58.8718 86.7561C61.2119 88.1713 63.3095 84.6469 65.0688 83.7181C68.0342 82.1532 69.8789 83.7998 72.3147 85.2082C72.8203 85.5008 73.4148 86.4397 74.3611 86.2288L74.6173 73.9817H74.6139Z" fill="#1F1F1F"/>
<path d="M8.38283 7.38839C9.49653 8.25929 9.43162 9.05875 11.314 9.18802C14.3305 9.39554 15.7312 6.85428 18.2285 6.85428C20.5071 6.85428 22.3792 9.3275 24.6135 9.44657C27.1518 9.58265 28.9248 7.55508 31.2581 7.37818C35.6309 7.04479 37.6021 10.9162 42.2789 9.18462C43.7923 8.6233 44.7762 7.44622 46.6108 7.36797C49.9245 7.22509 51.496 10.5522 55.435 9.29688C56.8903 8.83422 58.3285 7.44962 59.9068 7.36457C62.8209 7.20808 64.5529 10.0147 67.7745 9.61327C69.3528 9.41595 72.2156 7.44622 72.9125 9.72213C73.4489 30.0522 73.2815 50.4946 74.1082 70.7839C74.1424 71.6378 74.5387 72.6175 74.3815 73.5701L74.6172 73.9749L74.361 86.222C73.4147 86.4329 72.8237 85.494 72.3147 85.2014C70.5314 82.6567 68.8472 80.7244 65.4138 82.0172C63.7911 82.6261 61.9327 84.7183 60.1631 84.7013C57.8263 84.6809 57.0338 80.7584 52.555 81.4388C50.4096 81.7654 48.1754 84.4427 46.358 84.4427C44.9026 84.4427 43.297 82.9663 41.9544 82.456C38.3537 81.085 37.2468 82.7996 34.2063 83.793C30.9404 84.8612 29.4543 81.8062 26.1679 81.6225C22.8473 81.4354 22.164 82.803 19.5574 83.7215C15.024 85.3171 14.6824 79.3704 10.4223 80.4795C9.39746 80.7448 7.29988 82.769 6.45948 81.8981C6.06661 81.1565 5.88896 80.3094 5.81722 79.4759C5.52001 75.9345 5.93337 71.8589 5.83772 68.229C5.60883 59.8126 5.23304 51.4233 5.06906 42.9695C4.89825 33.9543 5.23646 24.6805 4.81284 15.6688C4.74452 14.2365 4.58395 12.2396 4.03394 10.9604C4.0681 8.91246 3.99294 6.87469 4.29015 4.83692C4.6147 4.4525 7.93872 7.04139 8.37942 7.38839H8.38283ZM49.2959 18.87C49.2823 18.9516 49.3062 19.0401 49.2959 19.1251C49.0363 19.2034 49.0807 19.4313 49.0397 19.6354C48.5922 21.8773 48.4795 28.0213 49.5009 30.0182C50.9767 32.9031 56.6477 32.5016 59.3636 32.1036C61.1606 31.8417 63.347 31.4606 64.1259 29.5828C65.6325 27.7049 65.5983 23.8845 65.4138 21.5371C65.0141 16.4954 62.1752 15.5259 57.6145 15.2843C54.3896 15.1142 50.0031 14.9714 49.2925 18.8666L49.2959 18.87ZM18.5564 20.7309C17.9347 20.7683 15.2461 20.9044 15.0275 21.0336C14.7063 21.2242 14.5218 21.8025 14.6209 22.1903C15.0035 23.6497 17.6306 22.7176 18.7238 22.6836C21.8429 22.5917 25.1054 22.4489 28.1869 22.4284C33.0926 22.3978 39.4059 23.2823 44.0656 22.7074C45.1623 22.5713 45.1828 21.9556 44.7147 21.0098L43.8094 20.639C35.4772 20.9622 26.8545 20.2138 18.5564 20.7275V20.7309ZM14.8396 27.7389C14.9865 27.8886 15.229 27.943 15.4374 27.9736C23.4998 27.5654 31.6168 27.3579 39.7167 27.5348C41.0388 27.562 45.3502 28.7493 44.9607 26.4053C44.7762 25.2997 41.5752 25.8338 40.4615 25.7692C33.0755 25.3609 24.5622 25.184 17.1934 25.7488C16.2334 25.8236 13.3876 26.2522 14.8396 27.7389ZM49.2959 40.3023C48.5819 42.813 48.4111 48.6678 49.3472 51.0933C50.4711 54.002 55.7937 53.7503 58.3695 53.5666C60.9454 53.3829 62.5886 53.1039 64.1259 51.0185C65.8545 48.678 65.8716 42.2891 64.6042 39.6968C62.9473 36.2982 56.5487 36.3629 53.2861 36.7575C50.8128 37.0569 49.9245 38.0877 49.2925 40.3023H49.2959ZM44.9129 43.837V42.5068L44.5303 42.1224C37.9027 41.9591 31.2615 41.6427 24.6101 41.8196C22.3075 41.8808 19.7692 41.9115 17.4632 42.0884C16.4896 42.1632 14.72 42.187 14.5868 43.2757C14.392 44.8644 16.4315 44.1193 17.1968 44.1125C24.1899 44.0377 31.1693 43.7213 38.1863 43.8574C39.2248 43.8778 44.4449 44.5888 44.9163 43.8302L44.9129 43.837ZM21.1152 47.011C19.2431 47.0824 17.3505 47.2832 15.4681 47.2457C12.1749 50.3041 19.2636 48.9977 20.7736 48.9671C28.6857 48.8072 36.6216 49.1372 44.5303 48.9399C46.0437 47.1539 43.6694 47.0246 42.2755 46.926C35.911 46.4633 27.5788 46.7661 21.1152 47.011ZM49.0397 62.245C48.6127 64.4665 48.5239 69.8143 49.1593 71.9508C50.1603 75.3187 54.9943 75.1996 57.8605 75.0023C60.0776 74.8492 63.1762 74.492 64.1293 72.1991C65.0551 71.5459 65.2738 69.7837 65.3763 68.7223C65.6632 65.6775 65.7145 60.7277 62.6877 58.9689C60.6755 57.7986 54.6151 57.6693 52.3569 58.2817C50.0988 58.894 49.4667 60.0371 49.0431 62.2484L49.0397 62.245ZM21.6277 63.3404C19.6087 63.4118 17.5555 63.5615 15.5296 63.6364C12.2466 66.0552 18.1772 65.6095 19.7726 65.5721C27.3362 65.3952 34.9306 65.2183 42.5317 65.2931C43.8231 65.3067 45.3399 66.0722 44.8411 63.7554L44.5337 63.5547C36.9393 63.1941 29.2459 63.0648 21.6311 63.337L21.6277 63.3404ZM18.8127 68.4433C18.167 68.4808 15.2461 68.6168 15.0275 68.7461C14.7063 68.9366 14.5218 69.515 14.6209 69.9028C15.007 71.3724 17.839 70.4301 18.9801 70.3961C23.6774 70.26 28.3884 70.4131 33.0448 70.4165C34.5719 70.4165 44.2262 70.6274 44.7045 70.294C45.111 70.0116 45.0256 69.1101 44.7147 68.7223L43.8094 68.3515C35.5455 68.6441 27.0458 67.9637 18.8127 68.4399V68.4433Z" fill="#FDC422"/>
<path d="M4.03396 10.9604C4.58398 12.2396 4.74454 14.2399 4.81287 15.6687C5.23648 24.6805 4.89827 33.9543 5.06909 42.9694C5.22965 51.4233 5.60886 59.8125 5.83774 68.229C5.93682 71.8589 5.52003 75.9344 5.81725 79.4759C5.88899 80.3093 6.06322 81.1564 6.4595 81.8981C7.2999 82.7724 9.4009 80.7448 10.4224 80.4794C14.6824 79.3704 15.0241 85.317 19.5574 83.7215C22.164 82.803 22.8473 81.4388 26.1679 81.6225C29.4543 81.8062 30.937 84.8612 34.2064 83.793C37.2468 82.7996 38.3537 81.085 41.9544 82.456C43.297 82.9663 44.9061 84.4427 46.358 84.4427C48.1788 84.4427 50.4131 81.7654 52.5551 81.4388C57.0304 80.7584 57.8264 84.6843 60.1631 84.7013C61.9327 84.7149 63.7911 82.6261 65.4139 82.0171C68.8472 80.7244 70.528 82.6567 72.3147 85.2014C69.8789 83.7929 68.0307 82.1464 65.0688 83.7113C63.3094 84.64 61.2119 88.1645 58.8717 86.7493C58.4789 86.5111 58.2466 85.7831 57.8673 85.4565C55.5375 83.4528 53.1222 82.8268 50.3106 84.293C48.2369 85.3749 47.8509 87.6167 45.2853 86.273C42.3883 84.7557 41.6094 82.769 37.5338 84.0481C36.0921 84.5006 33.1063 87.0588 31.8184 86.9228C31.2445 86.8615 29.0717 84.5958 27.9956 84.1297C26.062 83.2963 23.7833 83.5276 22.0171 84.64C20.818 85.3919 19.7692 87.3106 18.2388 87.2629C16.8654 87.2187 16.2881 85.664 15.2905 84.8169C12.9333 82.8132 10.6752 82.5887 8.04123 84.2216C7.32382 84.6673 5.00418 87.2085 4.1467 85.9804C3.84265 85.545 4.07837 79.1153 4.04421 77.9178C3.43612 55.6758 3.65817 33.199 4.03396 10.9536V10.9604Z" fill="#FDC422"/>
<path d="M74.6139 73.9817L74.3781 73.5769C74.5387 72.6209 74.1424 71.6446 74.1048 70.7907C73.2781 50.5014 73.4455 30.059 72.9091 9.72893C72.2122 7.45302 69.3528 9.42275 67.7711 9.62007C64.5496 10.0215 62.8175 7.21488 59.9035 7.37137C58.3251 7.45642 56.8869 8.83762 55.4316 9.30369C51.4926 10.559 49.9212 7.2353 46.6074 7.37478C44.7763 7.45302 43.789 8.6301 42.2756 9.19142C37.5987 10.9196 35.6275 7.05159 31.2547 7.38498C28.9248 7.56188 27.1484 9.58945 24.6101 9.45337C22.3759 9.3343 20.5003 6.86108 18.2251 6.86108C15.7278 6.86108 14.3272 9.40234 11.3106 9.19482C9.42825 9.06555 9.49316 8.26609 8.37946 7.39519C9.80404 7.90208 10.9246 8.37495 12.4858 8.04496C14.638 7.5891 16.394 4.52393 18.4574 4.60218C20.1895 4.66682 21.9932 7.08221 23.715 7.52786C27.2679 8.44639 30.9678 3.73128 33.3762 4.77908C34.2576 5.1635 35.0843 6.31336 36.4406 6.82706C39.1087 7.83404 41.77 7.49044 44.1682 5.97657C45.0154 5.44246 45.521 4.32662 46.8499 4.34363C47.827 4.35724 47.7552 5.07505 48.2574 5.49009C51.3867 8.07218 53.9353 8.70154 57.3447 6.11265C58.1953 5.46628 58.8888 4.08508 60.1255 4.15312C63.1387 4.31982 64.6179 9.86501 69.4143 7.69456C70.3675 7.26251 73.5343 4.35384 74.3713 4.95258L74.6139 73.9885V73.9817Z" fill="#FDC422"/>
<path d="M64.1294 29.5862C63.3505 31.464 61.1641 31.8451 59.3671 32.107C56.6512 32.5016 50.9768 32.9031 49.5044 30.0216C48.4829 28.0213 48.5991 21.8773 49.0432 19.6388C49.296 19.5572 49.2721 19.3463 49.2994 19.1285C49.3096 19.0435 49.2857 18.955 49.2994 18.8734C51.0964 15.4953 60.1563 15.6756 62.5818 17.4854C65.1303 19.3837 65.2123 26.9871 64.1294 29.5896V29.5862ZM51.8548 24.9935C51.8309 26.1672 51.7489 27.3885 52.1691 28.5043C52.7157 29.1473 57.8674 29.1915 58.8854 29.0759C61.4374 28.7867 61.615 27.477 61.5706 25.2487C61.5501 24.2349 61.3554 20.8738 60.8156 20.2614C60.5457 19.9552 59.9923 19.7681 59.5926 19.6967C58.8615 19.5674 57.0748 19.3769 56.3369 19.3667C55.4487 19.3565 53.047 19.5266 52.5004 20.1525C52.0563 20.6628 51.8718 24.0512 51.8513 24.9935H51.8548Z" fill="#1F1F1F"/>
<path d="M64.1293 72.1957C63.1796 74.4886 60.0777 74.8458 57.8605 74.9989C54.9943 75.1962 50.1603 75.3153 49.1593 71.9473C48.5239 69.8109 48.6161 64.463 49.0397 62.2416C49.5897 61.5271 49.9484 60.7719 50.7034 60.2038C52.8967 58.5538 57.4813 58.826 60.0981 59.2478C62.8448 59.6901 64.3001 61.7823 64.611 64.4392C64.8262 66.2797 64.8126 70.5389 64.1259 72.1923L64.1293 72.1957ZM51.8547 68.3685C51.8616 69.1509 51.7386 70.7601 52.374 71.2942C53.0094 71.8283 57.3651 72.0256 58.349 71.9133C60.7199 71.6378 61.5364 70.988 61.574 68.6236C61.5876 67.6881 61.3963 64.2725 61.123 63.5887C60.6687 62.4559 59.2202 62.3198 58.1304 62.2382C56.8425 62.1395 53.2998 61.9932 52.4731 62.99C51.9845 63.5785 51.8479 67.3343 51.8581 68.3719L51.8547 68.3685Z" fill="#1F1F1F"/>
<path d="M64.1293 51.0185C62.592 53.1039 60.8771 53.3896 58.3729 53.5665C55.8688 53.7435 50.4746 53.9986 49.3506 51.0933C48.4111 48.6677 48.582 42.813 49.2994 40.3023C50.2559 38.9109 51.8479 37.9822 53.5458 37.7781C55.5409 37.5399 60.6789 37.591 62.329 38.6558C65.5368 40.7276 64.8433 47.7866 64.1328 51.0185H64.1293ZM51.8547 46.4258C51.8342 47.5995 51.7454 48.8208 52.169 49.9401C54.2632 50.532 60.3646 51.3451 61.3793 48.9127C61.6423 48.2833 61.5569 47.8206 61.574 47.1913C61.6013 46.1435 61.3861 42.5714 60.9215 41.8468C60.7267 41.544 60.3954 41.2889 60.0537 41.18C58.6258 40.7208 53.2827 40.3908 52.3501 41.6835C52.0665 42.0781 51.8718 45.5992 51.8581 46.4224L51.8547 46.4258Z" fill="#1F1F1F"/>
<path d="M44.9129 43.837C44.4415 44.5922 39.2215 43.8812 38.1829 43.8642C31.1659 43.7281 24.1865 44.0445 17.1934 44.1193C16.4282 44.1261 14.3921 44.8712 14.5834 43.2824C14.7167 42.1938 16.4863 42.1666 17.4599 42.0952C19.7659 41.9217 22.3042 41.8876 24.6067 41.8264C31.2582 41.6461 37.9028 41.9659 44.5269 42.1292L44.9095 42.5136V43.8438L44.9129 43.837Z" fill="#1F1F1F"/>
<path d="M21.1153 47.011C27.5788 46.766 35.9111 46.4633 42.2756 46.9259C43.6694 47.028 46.0437 47.1539 44.5303 48.9399C36.6217 49.1372 28.6857 48.8072 20.7736 48.9671C19.2637 48.9977 12.1749 50.3041 15.4682 47.2457C17.354 47.2831 19.2432 47.0824 21.1153 47.011Z" fill="#1F1F1F"/>
<path d="M14.8396 27.7389C13.3877 26.2522 16.2334 25.8236 17.1934 25.7488C24.5622 25.184 33.0755 25.3609 40.4615 25.7692C41.5752 25.8304 44.7762 25.2963 44.9607 26.4053C45.3502 28.7493 41.0388 27.562 39.7167 27.5348C31.6168 27.3613 23.4998 27.5654 15.4374 27.9736C15.229 27.9464 14.9865 27.892 14.8396 27.7389Z" fill="#1F1F1F"/>
<path d="M21.6277 63.3404C29.2425 63.0682 36.9359 63.1941 44.5303 63.5581L44.8377 63.7588C45.3365 66.0756 43.8231 65.3101 42.5283 65.2965C34.9271 65.2183 27.3362 65.3986 19.7692 65.5755C18.1738 65.6129 12.2432 66.0551 15.5262 63.6398C17.5521 63.5683 19.6052 63.4186 21.6242 63.3438L21.6277 63.3404Z" fill="#1F1F1F"/>
<path d="M18.8127 68.4433C27.0459 67.9705 35.5455 68.6508 43.8095 68.3549L44.7148 68.7257C45.0256 69.1135 45.1111 70.015 44.7045 70.2974C44.2262 70.6308 34.5685 70.4199 33.0448 70.4199C28.3885 70.4165 23.6775 70.2634 18.9801 70.3995C17.8357 70.4335 15.0036 71.3758 14.621 69.9062C14.5185 69.5183 14.7064 68.94 15.0275 68.7495C15.2461 68.6168 18.167 68.4808 18.8127 68.4467V68.4433Z" fill="#1F1F1F"/>
<path d="M18.5565 20.7309C26.8546 20.2172 35.4772 20.9656 43.8095 20.6424L44.7148 21.0132C45.1794 21.959 45.1623 22.5747 44.0657 22.7108C39.4093 23.2857 33.0927 22.4012 28.1869 22.4318C25.1055 22.4523 21.8429 22.5951 18.7239 22.687C17.6307 22.7176 15.0036 23.6532 14.621 22.1937C14.5185 21.8059 14.7064 21.2276 15.0275 21.037C15.2461 20.9078 17.9347 20.7717 18.5565 20.7343V20.7309Z" fill="#1F1F1F"/>
<path d="M64.1294 72.1957C64.816 70.5389 64.8297 66.2831 64.6145 64.4426C64.3036 61.7823 62.8483 59.6935 60.1016 59.2512C57.4848 58.8294 52.9036 58.5572 50.7069 60.2072C49.9519 60.7753 49.5932 61.5305 49.0432 62.2449C49.4668 60.0371 50.0749 58.9008 52.357 58.2783C54.639 57.6557 60.6755 57.7952 62.6877 58.9655C65.7145 60.7243 65.6633 65.6741 65.3763 68.7189C65.2772 69.7837 65.0586 71.5425 64.1294 72.1957Z" fill="#FDC422"/>
<path d="M64.1294 51.0185C64.8434 47.7866 65.5335 40.7276 62.3256 38.6558C60.679 37.591 55.5409 37.5399 53.5424 37.7781C51.8445 37.9822 50.2525 38.9109 49.296 40.3023C49.928 38.0877 50.8128 37.0603 53.2896 36.7575C56.5555 36.3629 62.9508 36.2982 64.6077 39.6968C65.8717 42.2891 65.8546 48.678 64.1294 51.0185Z" fill="#FDC422"/>
<path d="M64.1294 29.5861C65.2089 26.9802 65.1269 19.3769 62.5818 17.482C60.1563 15.6755 51.0929 15.4952 49.2994 18.87C50.01 14.9747 54.393 15.1176 57.6214 15.2877C62.1821 15.5259 65.021 16.4988 65.4207 21.5405C65.6052 23.8879 65.6394 27.7083 64.1328 29.5861H64.1294Z" fill="#FDC422"/>
<path d="M49.0398 19.6354C49.0808 19.4313 49.0363 19.2034 49.296 19.1251C49.2687 19.3428 49.296 19.5538 49.0398 19.6354Z" fill="#FDC422"/>
<path d="M61.5706 25.2487C60.2656 25.8848 59.5482 26.8816 58.0006 27.1742C55.3428 27.6777 53.3818 27.2966 51.8513 24.9935C51.8718 24.0512 52.0563 20.6628 52.5004 20.1525C53.047 19.5266 55.4487 19.3531 56.3369 19.3667C57.0748 19.3769 58.8615 19.5674 59.5926 19.6967C59.9923 19.7681 60.5457 19.9552 60.8156 20.2614C61.3554 20.8737 61.5501 24.2349 61.5706 25.2487ZM55.1105 20.7172C54.4921 20.8261 53.7371 21.1085 53.6346 21.8195C53.2691 24.422 60.6243 24.6669 59.9957 21.6018C59.6507 20.4587 56.1114 20.5403 55.1105 20.7172Z" fill="#F47356"/>
<path d="M61.5706 25.2486C61.615 27.4769 61.4408 28.7867 58.8854 29.0759C57.8639 29.1915 52.7122 29.1473 52.169 28.5043C51.7454 27.3885 51.8308 26.1672 51.8547 24.9935C53.3852 27.2966 55.3462 27.6742 58.004 27.1742C59.5482 26.8816 60.2656 25.8848 61.574 25.2486H61.5706Z" fill="#F47356"/>
<path d="M61.5706 68.6236C60.7165 68.9196 60.5081 69.6476 59.4799 69.981C57.7956 70.5321 54.762 70.6104 53.2008 69.6987C52.3501 69.202 52.7054 68.3651 51.8513 68.3651C51.8445 67.3275 51.9812 63.5717 52.4663 62.9832C53.293 61.9864 56.8357 62.1327 58.1236 62.2314C59.2134 62.3164 60.6619 62.4491 61.1162 63.5819C61.3895 64.2657 61.5808 67.6847 61.5672 68.6168L61.5706 68.6236Z" fill="#8FB6F1"/>
<path d="M51.8548 68.3685C52.7088 68.3685 52.3535 69.2054 53.2042 69.702C54.7654 70.6138 57.799 70.5321 59.4833 69.9844C60.5115 69.6476 60.7199 68.923 61.574 68.627C61.5364 70.9914 60.7199 71.6412 58.3491 71.9167C57.3652 72.029 53.0231 71.8453 52.374 71.2976C51.7249 70.7498 51.8616 69.1543 51.8548 68.3719V68.3685Z" fill="#8FB6F1"/>
<path d="M61.5706 47.1913C58.6395 49.3413 53.8601 50.1578 51.8548 46.4259C51.8684 45.6026 52.0597 42.0816 52.3467 41.6869C53.2793 40.3942 58.6224 40.7242 60.0504 41.1834C60.392 41.2923 60.7234 41.5475 60.9181 41.8502C61.3861 42.5748 61.6014 46.1469 61.5706 47.1947V47.1913Z" fill="#C6BCF8"/>
<path d="M61.5706 47.1913C61.5535 47.8206 61.6389 48.2833 61.3759 48.9127C60.3612 51.3451 54.2598 50.532 52.1656 49.9401C51.742 48.8242 51.8308 47.6029 51.8513 46.4258C53.8601 50.1578 58.636 49.3413 61.5672 47.1913H61.5706Z" fill="#C6BCF8"/>
<path d="M55.1104 20.7173C56.108 20.5404 59.6472 20.4587 59.9957 21.6018C60.6277 24.6669 53.2691 24.4254 53.6346 21.8195C53.7371 21.1085 54.4921 20.8261 55.1104 20.7173Z" fill="#F47356"/>
</svg>
