<svg width="98" height="91" viewBox="0 0 98 91" fill="none" xmlns="http://www.w3.org/2000/svg">
<path d="M14.6799 54.222C13.2471 54.5022 11.0904 57.0991 9.6692 56.4566C9.31032 56.2942 5.75097 50.6398 5.33683 49.8726C3.40496 46.2925 4.10702 43.132 7.34984 40.7308C8.15337 40.1352 13.0705 37.3102 13.2402 36.9515L11.3594 35.4343C8.32488 32.2013 9.75082 26.6381 13.9892 25.3576C17.357 24.3403 23.0369 26.9341 26.6277 27.3391C26.8263 27.3605 27.032 27.4369 27.2186 27.3006L30.4162 13.32C32.8989 6.44172 42.9899 8.71587 42.3995 15.9855C42.3614 16.4564 41.7523 18.5985 41.8887 18.7801C45.8038 16.6654 49.2564 12.4832 54.068 14.9219C56.865 16.3384 58.6467 21.1879 60.59 23.6134L60.655 24.5505L19.695 50.9977L66.6984 50.9793C66.916 50.9792 67.823 51.7533 67.6915 52.1335L67.703 81.4929C67.4866 84.6412 65.0548 87.3315 61.883 87.6674L20.1543 87.6789C18.0611 87.6391 14.6918 84.6117 14.691 82.5798L14.6799 54.2196L14.6799 54.222ZM39.148 20.5238C39.5442 18.3005 40.8852 15.6394 39.7385 13.498C38.1034 10.4461 33.537 10.8447 32.4403 14.0937L29.7109 26.4821L39.1456 20.5262L39.148 20.5238ZM49.8943 16.4965C49.2437 16.6067 48.5598 17.1209 47.9858 17.4534C43.7072 19.9244 39.6895 22.9475 35.4516 25.4926L41.2777 34.5262L57.9923 23.8511C58.0735 23.624 57.9084 23.4949 57.8342 23.33C57.3864 22.3406 54.6266 18.0819 53.8824 17.4343C52.7362 16.4356 51.3869 16.2425 49.8943 16.4965ZM33.5623 26.6694L23.9985 32.8716L29.6427 41.8599L39.3716 35.6983L33.5599 26.6718L33.5623 26.6694ZM25.2362 29.1683L15.5257 27.243C10.591 27.9908 10.7899 34.8943 15.8231 35.2533C18.7934 33.2944 22.0843 31.572 25.0019 29.5652C25.1598 29.4552 25.3321 29.5938 25.2362 29.1659L25.2362 29.1683ZM10.9143 41.162C10.0438 41.7361 8.88138 42.1859 8.06593 42.8795C3.94801 46.3759 8.80102 50.7772 10.649 54.0347L15.2169 51.0018C18.919 48.7366 22.7073 46.524 26.3018 44.0939C26.6127 43.8834 27.7678 43.2566 27.6792 42.9363L22.0805 34.1656C21.7432 34.1107 20.7747 34.79 20.4183 35.0005C17.1897 36.9285 14.0544 39.0931 10.9143 41.162ZM21.1263 53.1461C19.6886 53.173 18.2605 53.1544 16.8301 53.3271L16.8414 82.2252C16.8415 82.4929 17.6745 83.9245 17.9162 84.1921C19.3737 85.7979 21.1773 85.4913 23.1077 85.5335C25.9066 85.5946 28.7221 85.4835 31.5233 85.5302L31.5108 53.4122C31.3528 53.1565 31.1542 53.1661 30.8935 53.1351C28.2309 52.823 23.9395 53.0924 21.1263 53.1485L21.1263 53.1461ZM45.1197 53.316L33.6589 53.3205L33.6715 85.5294L45.1323 85.5249L45.1197 53.316ZM65.5343 53.308L47.2702 53.3152L47.2828 85.5241L62.0544 85.5183C62.6069 85.5181 64.1829 84.3987 64.5655 83.9109C64.8787 83.5116 65.5456 82.1081 65.5454 81.6707L65.5343 53.3104L65.5343 53.308Z" fill="#1F1F1F"/>
<path d="M77.0328 45.8334C76.7747 46.5363 75.9288 48.7693 75.2519 48.9751C73.5441 49.4897 73.2918 46.5472 72.337 45.699C67.2655 45.395 67.9946 44.0226 71.0506 41.1935C71.0718 40.1704 70.253 38.5093 70.6736 37.6032C71.4146 36.0084 73.7574 38.3884 74.7622 38.4526C75.8554 38.5238 78.0313 36.0895 78.9361 37.4876C79.4507 38.281 78.6118 40.2224 78.629 41.1929C79.1963 42.1608 82.0771 43.7637 80.7619 44.9953C80.1234 45.5931 77.3819 45.4364 77.0352 45.8358L77.0328 45.8334ZM76.4493 40.2424C75.8107 40.3287 75.476 40.8212 74.7535 40.7928C74.11 40.7668 73.7031 40.1908 73.0501 40.2437C73.225 40.9536 73.4479 41.9455 72.9505 42.5601C72.7114 42.8566 72.0728 42.9429 72.1543 43.464C73.6327 43.5375 74.3361 43.946 74.6644 45.4327C75.2218 45.5377 75.1426 44.6891 75.4008 44.2946C76.0152 43.3597 77.264 43.7464 77.5247 43.4619C77.7973 43.163 77.0604 42.9696 76.8881 42.7617C76.0935 41.8035 76.445 41.3922 76.4469 40.2447L76.4493 40.2424Z" fill="#1F1F1F"/>
<path d="M82.4863 13.7132C81.5944 14.6052 79.5029 12.6219 78.6487 12.192C77.7158 12.2569 75.9389 13.5221 75.1399 13.3742C73.3074 13.0355 75.1625 10.0945 74.9755 9.05953C74.7885 8.02454 72.0107 6.64156 73.1297 5.35506C73.6725 4.73094 76.1198 4.98098 76.9713 4.72008C77.7412 3.89269 78.4721 1.10514 80.0177 1.85752C80.6853 2.18236 81.0905 4.62285 81.6338 5.25133C82.5908 5.67167 85.1647 5.64676 85.3614 6.90645C85.5293 7.98209 83.0131 9.00379 82.5542 9.94342C82.6741 10.6701 82.9382 13.2612 82.4863 13.7132ZM81.8093 7.49589C80.3357 7.42715 79.5819 6.77485 79.2991 5.34786C78.3666 6.5554 78.0152 7.24399 76.2569 6.96021C77.1808 8.22201 77.7096 8.74531 76.9759 10.3568C77.6218 10.4258 78.0497 9.80893 78.6765 9.80868C79.3845 9.8084 79.7149 10.4991 80.3776 10.5323C80.1138 8.90931 80.7212 8.44293 81.8093 7.4935L81.8093 7.49589Z" fill="#1F1F1F"/>
<path d="M87.9451 25.7039C88.7299 26.1554 91.0479 26.1975 91.4979 26.893C92.4602 28.3818 89.7455 29.3749 89.0067 30.3362C88.9162 31.4095 89.7999 34.0339 88.4509 34.436C87.3674 34.7592 86.0438 32.974 84.9553 32.7354C83.965 32.9103 81.8677 34.4912 81.0182 33.6166C80.1686 32.742 81.6054 30.5877 81.4352 29.6364C81.289 28.826 79.2863 27.6077 79.2978 26.5487C79.3164 25.0141 82.3809 25.4933 83.3927 25.3519C84.1865 24.3452 84.7166 21.8781 86.3483 22.3818C87.0732 22.6038 87.5501 25.0252 87.9451 25.7063L87.9451 25.7039ZM85.754 25.9247L85.388 26.0348C84.9987 27.4238 84.0539 27.6656 82.7142 27.537C83.7146 28.8442 84.0473 29.2624 83.4332 30.9336C84.0742 30.8353 84.5907 30.3236 85.2965 30.3974C85.8802 30.4569 86.2369 31.1094 86.8325 31.1115C86.643 29.7467 86.9464 28.7665 88.2643 28.2472L86.4603 27.4591L85.754 25.9247Z" fill="#1F1F1F"/>
<path d="M67.6314 26.6943C70.3631 26.404 73.9826 26.7851 76.4972 27.9339C77.1719 28.242 77.6624 28.5335 77.4905 29.3726C77.149 31.0173 74.8472 29.6007 73.8376 29.3405C67.761 27.7724 62.5874 29.6079 58.726 34.4381C58.2239 35.067 56.9211 37.3265 56.493 37.5752C55.7085 38.0321 54.7299 37.5018 54.7846 36.5958C54.8155 36.0986 56.3528 33.8821 56.7545 33.3656C59.2697 30.116 63.4572 27.1406 67.6314 26.6967L67.6314 26.6943Z" fill="#1F1F1F"/>
<path d="M64.1297 21.6805C64.7107 21.0994 67.3903 21.9374 68.2969 21.9921C72.5718 22.2557 75.4418 20.7223 76.9831 16.7177C77.3153 15.857 77.3695 13.7247 78.8169 14.1473C80.2643 14.5698 79.2916 16.8746 78.9499 17.7879C76.9187 23.2341 71.6064 24.9119 66.195 23.9148C64.8553 23.6691 63.2596 23.4163 64.1297 21.6805Z" fill="#1F1F1F"/>
<path d="M62.2683 39.4065C63.2826 39.3654 66.4379 39.5793 67.2108 40.0858C67.8473 40.5039 67.7855 41.637 67.1421 41.9456C66.4533 42.2758 64.8815 41.729 64.0155 41.6719C61.109 41.4747 58.3128 42.071 55.9811 43.86C55.4 44.3048 53.6976 46.3469 53.5373 46.4259C52.6835 46.8445 51.5709 46.2784 51.8193 45.2624C51.9125 44.8799 52.7039 43.8947 53.0028 43.5671C55.2217 41.128 58.9911 39.5368 62.2707 39.4065L62.2683 39.4065Z" fill="#1F1F1F"/>
<path d="M49.3677 46.0163C52.0467 45.4941 52.6128 49.6031 50.0246 49.9101C47.4819 50.2123 46.9063 46.4954 49.3677 46.0163Z" fill="#1F1F1F"/>
<path d="M64.5752 10.9377C67.2542 10.4155 67.8203 14.5245 65.2322 14.8315C62.644 15.1385 62.176 11.4048 64.5752 10.9377Z" fill="#1F1F1F"/>
<path d="M48.4554 37.6286C50.0301 39.2989 47.8375 42.0631 45.8227 40.5292C43.6357 38.864 46.572 35.6309 48.4554 37.6286Z" fill="#1F1F1F"/>
<path d="M91.6075 13.4347C94.8151 12.69 95.0226 17.2605 92.1089 17.1684C89.8889 17.0999 89.6509 13.8896 91.6075 13.4347Z" fill="#1F1F1F"/>
<path d="M88.3958 40.2759C91.8665 39.4809 91.8352 45.0148 88.2608 43.9142C86.7512 43.4487 86.7956 40.6423 88.3958 40.2759Z" fill="#1F1F1F"/>
<path d="M65.5343 53.308L65.5454 81.6683C65.5456 82.1057 64.8787 83.5092 64.5655 83.9085C64.1853 84.3963 62.6093 85.5157 62.0544 85.5159L47.2828 85.5217L47.2702 53.3128L65.5343 53.3056L65.5343 53.308Z" fill="#F47356"/>
<path d="M45.1221 53.316L33.6613 53.3205L33.6739 85.5294L45.1347 85.5249L45.1221 53.316Z" fill="#C6BCF8"/>
<path d="M21.1263 53.1461C23.9419 53.0924 28.2309 52.823 30.8935 53.1327C31.1542 53.1637 31.3528 53.1541 31.5108 53.4098L31.5233 85.5278C28.7221 85.4811 25.9066 85.5922 23.1077 85.5311C22.1433 84.506 21.3152 83.5119 21.1352 82.0442L21.1239 53.1461L21.1263 53.1461Z" fill="#F47356"/>
<path d="M49.8943 16.4964C51.3869 16.2425 52.7362 16.4356 53.8824 17.4343C54.6242 18.0818 57.3841 22.3405 57.8342 23.33C57.9084 23.4949 58.0735 23.6239 57.9923 23.8511L41.2777 34.5262L35.4516 25.4926C39.6919 22.9475 43.7096 19.9244 47.9858 17.4534C48.5598 17.1209 49.2413 16.6067 49.8943 16.4964Z" fill="#F47356"/>
<path d="M10.9143 41.162C14.052 39.0931 17.1896 36.9261 20.4183 35.0005C20.7746 34.7876 21.7432 34.1083 22.0805 34.1656L27.6792 42.9363C27.7678 43.2566 26.6127 43.8834 26.3018 44.0939C22.7073 46.5264 18.919 48.7366 15.2168 51.0018C14.2566 48.5831 11.2127 45.754 10.9366 43.2011C10.8598 42.4816 11.0629 41.8098 10.9167 41.162L10.9143 41.162Z" fill="#F47356"/>
<path d="M21.1263 53.1461L21.1376 82.0442C21.3176 83.5119 22.1433 84.506 23.1077 85.5311C21.1749 85.4889 19.3737 85.7956 17.9163 84.1897C17.6721 83.9221 16.8415 82.4906 16.8414 82.2228L16.8301 53.3247C18.2605 53.152 19.6886 53.173 21.1263 53.1437L21.1263 53.1461Z" fill="#F47356"/>
<path d="M33.5623 26.6694L39.374 35.6959L29.6451 41.8575L23.9985 32.8716L33.5623 26.6694Z" fill="#C6BCF8"/>
<path d="M39.148 20.5238L29.7133 26.4797L32.4426 14.0913C33.5394 10.8423 38.1058 10.4437 39.7409 13.4956C40.8875 15.637 39.5442 18.2981 39.1504 20.5214L39.148 20.5238Z" fill="#C6BCF8"/>
<path d="M25.2362 29.1683C25.3321 29.5962 25.1622 29.4576 25.0019 29.5676C22.0843 31.5744 18.7934 33.2992 15.8231 35.2557C10.7898 34.8967 10.591 27.9932 15.5257 27.2454L25.2362 29.1707L25.2362 29.1683Z" fill="#C6BCF8"/>
<path d="M10.9143 41.162C11.0629 41.8098 10.8574 42.4816 10.9343 43.2011C11.2104 45.754 14.2543 48.5831 15.2145 51.0018L10.6467 54.0347C8.79864 50.7749 3.94802 46.3759 8.06355 42.8795C8.879 42.1883 10.0414 41.7361 10.9119 41.162L10.9143 41.162Z" fill="#F47356"/>
<path d="M76.4494 40.2423C76.4498 41.3897 76.0959 41.801 76.8905 42.7593C77.0628 42.9672 77.7997 43.1605 77.5271 43.4594C77.2545 43.7584 76.0176 43.3572 75.4032 44.2921C75.1426 44.6867 75.2219 45.5376 74.6668 45.4303C74.3385 43.9459 73.6351 43.5351 72.1567 43.4615C72.0752 42.9405 72.7138 42.8542 72.9529 42.5576C73.4503 41.9431 73.2274 40.9512 73.0525 40.2413C73.7055 40.186 74.1148 40.762 74.7559 40.7904C75.4784 40.8212 75.8131 40.3262 76.4517 40.2399L76.4494 40.2423Z" fill="#FDC422"/>
<path d="M81.8093 7.49586C80.7212 8.44768 80.1114 8.91167 80.3776 10.5347C79.7149 10.4991 79.3846 9.81076 78.6765 9.81104C78.0521 9.81128 77.6218 10.4282 76.9759 10.3591C77.7096 8.74767 77.1808 8.22437 76.2569 6.96257C78.0129 7.24635 78.3666 6.55776 79.2991 5.35022C79.5819 6.7772 80.3357 7.42711 81.8093 7.49825L81.8093 7.49586Z" fill="#FDC422"/>
<path d="M85.754 25.9247L86.4603 27.4591L88.2643 28.2472C86.9464 28.7665 86.6454 29.7467 86.8325 31.1116C86.2369 31.1118 85.8802 30.4593 85.2965 30.3974C84.5907 30.3236 84.0742 30.8353 83.4332 30.9336C84.0473 29.2624 83.717 28.8442 82.7142 27.5371C84.0539 27.668 84.9987 27.4238 85.3881 26.0348L85.754 25.9247Z" fill="#FDC422"/>
</svg>
