<svg width="487" height="370" viewBox="0 0 487 370" fill="none" xmlns="http://www.w3.org/2000/svg">
<g clip-path="url(#clip0_306_274)">
<path d="M90.8197 106.998C92.2463 97.6782 106.139 78.1453 112.379 70.1721C179.991 -16.173 318.242 -21.6129 400.214 47.1191C380.668 36.2527 353.562 36.786 332.082 40.1326L330.815 42.0526C329.322 56.239 326.775 70.3587 325.362 84.5585C322.615 112.265 316.002 190.637 332.815 211.823C333.789 213.049 336.109 215.369 337.362 216.249C339.482 217.756 343.148 217.436 343.348 220.263L327.335 342.527C325.989 343.927 296.096 340.66 288.683 344.3C280.243 348.447 299.283 351.66 302.203 352.207C318.816 355.3 344.922 357.273 361.321 354.074C371.255 352.14 365.281 348.807 359.281 347.034C349.468 344.127 338.762 344.767 329.255 341.914L345.295 219.503C345.895 218.076 357.735 216.956 357.281 211.809C357.628 211.516 359.975 209.17 360.281 208.81C366.268 205.77 370.335 196.25 373.108 190.21C392.361 148.397 397.054 96.2916 404.187 51.1324C481.213 111.758 482.759 246.436 485.066 336.034C485.359 347.18 484.066 358.54 486.026 369.513H55.887L53.887 341.567C55.2203 341.807 56.807 341.607 58.1536 341.367L78.8466 311.128L74.54 314.861C70.9134 321.234 66.2335 326.954 62.2602 333.007C61.6069 333.994 61.9402 337.634 59.8203 334.954C58.3136 333.047 55.927 327.247 53.887 325.594C52.9137 269.848 57.0736 213.676 71.1401 159.704C72.0467 156.237 72.9934 151.971 74.8467 148.944C76.46 152.931 78.2066 156.917 79.8332 160.917C81.8732 165.93 84.8065 170.917 86.8198 175.89C91.913 188.463 96.6729 201.236 101.793 213.809C103.419 217.809 105.166 221.796 106.779 225.783C112.073 238.796 117.299 251.755 122.752 264.702C123.966 267.582 124.499 274.342 127.739 274.688C126.886 278.395 134.606 295.555 136.526 300.381C137.126 301.888 138.659 302.488 138.725 302.634C139.979 305.768 141.432 309.448 142.712 312.621C146.352 321.621 150.005 331.367 153.685 340.567C154.485 342.554 155.059 346.314 155.699 348.54H156.672C156.805 347.967 156.498 346.727 156.672 346.554C157.472 345.767 161.858 343.674 163.672 342.074C214.671 297.035 268.39 249.342 317.429 202.383C318.962 200.916 318.909 199.41 319.362 198.85C319.589 198.583 322.335 199.69 321.362 196.863C309.509 192.383 297.216 188.477 285.43 183.877C282.176 182.61 278.95 181.863 276.443 180.877C264.203 176.117 251.083 170.81 238.524 165.904C235.91 164.877 232.764 163.17 229.537 161.917C218.991 157.797 207.951 153.971 197.604 149.944C194.991 148.931 191.845 147.211 188.618 145.957C174.312 140.371 160.018 134.584 145.699 128.984C142.739 127.824 139.379 127.024 136.712 125.984C124.752 121.318 112.713 116.558 100.78 112.011C97.9262 110.918 94.5263 107.718 90.793 108.025C90.8464 107.705 90.7397 107.358 90.793 107.025L90.8197 106.998ZM242.524 37.1327C245.124 48.5858 248.75 60.0389 251.51 71.0654C252.017 73.0787 251.75 76.7186 252.497 79.0519C247.417 75.9453 232.897 75.9586 232.537 83.6385C232.044 94.0916 255.79 90.3717 255.47 82.6785C255.35 79.8385 253.23 74.3586 252.51 71.0654C249.977 59.5056 246.404 48.2125 243.524 37.1327C243.337 36.426 243.377 32.5461 243.63 32.2394L276.976 20.1596C279.19 19.8663 278.136 20.493 278.483 21.6263C279.39 24.5729 279.723 28.1462 280.456 31.1461C282.603 39.7993 285.336 48.6258 287.443 57.0923C287.896 58.8923 287.443 61.9455 288.443 64.0655C283.83 63.3722 277.99 62.0922 273.43 63.5188C264.87 66.1988 267.963 78.4252 281.536 75.5986C295.883 72.612 290.776 66.8121 288.456 56.079C286.603 47.5325 283.496 39.146 281.47 31.1328C281.15 29.8528 281.67 27.7195 281.216 25.9329C280.11 21.6263 278.67 12.0931 277.27 8.89318C276.79 7.79986 276.403 7.05321 275.03 7.17321L238.964 21.1196C239.937 26.4795 241.337 31.8128 242.55 37.1327H242.524ZM200.871 39.026C200.871 34.3327 197.071 30.5194 192.365 30.5194C187.658 30.5194 183.858 34.3194 183.858 39.026C183.858 43.7325 187.658 47.5325 192.365 47.5325C197.071 47.5325 200.871 43.7325 200.871 39.026ZM186.618 108.998C186.765 86.2784 163.712 76.4386 145.019 87.8517C141.939 89.7317 137.246 91.9983 139.672 95.5849C143.165 100.758 149.152 106.011 152.205 111.985C158.592 102.571 165.712 90.5984 178.605 98.5849L186.631 109.011L186.618 108.998ZM229.417 111.145L213.591 101.025C212.897 112.331 204.004 121.544 192.351 116.771C190.658 116.078 188.831 112.571 186.618 114.518C194.244 138.184 224.204 133.771 229.417 111.158V111.145ZM310.376 139.957L282.443 122.971L287.429 151.917C288.923 153.357 306.296 142.677 309.762 141.997L310.376 139.957ZM441.08 124.011L419.187 134.451C428.494 141.611 438.253 153.571 426.174 163.41L415.174 168.864C442.333 172.384 454.173 145.597 441.067 123.998L441.08 124.011ZM413.187 167.89C386.854 166.464 382.974 198.783 404.734 209.81L419.187 196.316C408.614 193.983 400.574 183.957 406.374 173.517L413.201 167.89H413.187ZM452.106 217.783L409.121 236.396L429.16 298.621C419.147 297.021 398.681 304.941 402.667 317.648C407.107 331.807 434.253 320.608 435.093 308.021L417.307 254.315L455.986 235.622L452.106 217.783ZM59.8869 262.689C61.4602 263.075 62.2335 262.275 63.4335 261.742C71.9267 257.969 81.3265 249.662 89.8064 245.222L59.8869 237.742V262.689ZM294.296 270.795C292.283 269.622 276.843 280.768 272.456 279.662C272.163 282.355 275.376 282.835 276.99 284.608C284.163 292.528 289.403 301.808 279.47 310.114L268.47 315.568C295.269 319.608 308.202 291.968 294.296 270.782V270.795ZM375.641 283.488C375.641 278.782 371.828 274.968 367.121 274.968C362.415 274.968 358.602 278.782 358.602 283.488C358.602 288.195 362.415 292.008 367.121 292.008C371.828 292.008 375.641 288.195 375.641 283.488ZM86.8331 298.621C86.2198 298.675 85.5531 298.288 85.0065 298.821L78.8599 309.594L83.1532 305.354C84.8331 303.354 85.6865 300.728 86.8331 298.621C88.4597 298.488 90.0464 298.661 91.5263 299.395L120.739 315.074L98.8462 347.047L100.806 348.514L128.832 304.194L93.393 286.568C91.8063 289.795 89.0331 292.568 87.3798 295.688C86.7931 296.795 87.0464 298.221 86.8464 298.608L86.8331 298.621ZM265.483 315.568C263.137 311.554 253.923 316.368 251.163 318.728C237.39 330.501 244.457 347.407 257.203 356.394C260.243 357.207 261.577 352.834 263.47 350.994C266.363 348.167 269.296 345.527 272.47 343.034C258.483 340.447 251.137 322.741 265.483 315.581V315.568ZM443.133 326.567V352.514L469.759 336.714L472.093 334.061L443.133 326.567ZM218.271 346.02C218.271 341.314 214.457 337.487 209.738 337.487C205.018 337.487 201.204 341.3 201.204 346.02C201.204 350.74 205.018 354.554 209.738 354.554C214.457 354.554 218.271 350.74 218.271 346.02ZM95.2329 352.154C91.3663 346.967 87.9131 338.141 79.5399 340.74C66.7001 344.714 91.833 368.473 96.6996 353.874L96.7263 352.607C96.2729 352.5 95.4729 352.474 95.2329 352.154ZM99.0595 350.5C99.0595 349.82 98.5129 349.274 97.8329 349.274C97.1529 349.274 96.6063 349.82 96.6063 350.5C96.6063 351.18 97.1529 351.727 97.8329 351.727C98.5129 351.727 99.0595 351.18 99.0595 350.5Z" fill="#C6BCF8"/>
<path d="M56.887 44.1192L52.6071 89.7717C49.5671 93.0383 47.5538 93.1583 43.2739 93.8916C29.0475 96.3316 14.1811 96.1183 -0.00531006 99.0115L1.128 84.6918L3.50129 83.0118L48.8871 92.0383C49.3538 89.9184 47.8071 89.7717 46.5672 88.8784C36.8607 81.8519 24.0743 76.2786 14.0478 69.5054C12.9278 68.7454 9.63451 67.3188 10.0078 65.6655L24.3409 52.1724L50.8871 89.0517L39.9273 45.1459L56.9003 44.1325L56.887 44.1192Z" fill="#FDC422"/>
<path d="M90.8197 106.998C90.7664 107.318 90.8731 107.665 90.8197 107.998C88.2998 124.491 87.4065 140.664 82.3532 156.917C81.8599 158.504 81.7132 160.237 79.8466 160.89C78.22 156.89 76.4733 152.891 74.86 148.917C67.3535 130.398 60.087 111.691 52.9138 93.0383L90.8331 107.011L90.8197 106.998Z" fill="#FDC422"/>
<path d="M400.214 47.1191C403.481 48.9324 403.641 50.6658 404.201 51.1057C397.054 96.2649 392.361 148.371 373.121 190.183C370.335 196.236 366.268 205.756 360.295 208.783C371.001 196.09 379.561 168.344 383.961 152.104C392.548 120.411 397.641 86.6518 401.214 54.079C382.614 55.5323 363.335 56.439 345.308 50.5991C340.762 49.1191 336.802 46.7192 332.349 45.1059C331.189 58.6123 328.709 72.0387 327.362 85.5318C324.375 115.478 319.749 174.503 329.869 201.77C330.389 203.17 335.175 213.009 335.642 213.463C336.802 214.636 343.842 216.863 345.788 216.796C348.815 216.703 354.975 213.703 357.295 211.756C357.748 216.903 345.908 218.023 345.308 219.449L329.269 341.86C338.775 344.714 349.495 344.087 359.295 346.98C365.295 348.754 371.268 352.087 361.335 354.02C344.935 357.22 318.829 355.247 302.216 352.154C299.296 351.607 280.256 348.394 288.696 344.247C296.096 340.607 326.002 343.874 327.349 342.474L343.362 220.209C343.162 217.369 339.495 217.689 337.375 216.196C336.122 215.303 333.802 212.996 332.829 211.769C316.016 190.583 322.629 112.225 325.375 84.5051C326.789 70.3187 329.335 56.199 330.829 41.9992L332.095 40.0793C353.575 36.7327 380.681 36.1993 400.227 47.0658L400.214 47.1191ZM401.201 50.1324C380.161 38.8926 356.495 38.0793 333.349 42.1459C334.122 43.6792 337.402 45.2925 338.949 46.0125C356.495 54.079 380.801 54.479 399.721 52.1191C401.107 51.9457 402.654 51.6257 401.201 50.1458V50.1324Z" fill="white"/>
<path d="M53.9004 325.567C55.9404 327.221 58.3137 333.021 59.8336 334.927C61.9536 337.607 61.6203 333.967 62.2736 332.981C66.2469 326.927 70.9268 321.208 74.5534 314.834L78.86 311.101L58.167 341.34C56.8204 341.567 55.2471 341.78 53.9004 341.54C52.3271 341.26 45.0606 336.434 43.9006 335.074C37.0474 326.994 45.9939 319.168 53.9004 325.581V325.567Z" fill="white"/>
<path d="M276.456 180.85L246.51 229.756C221.217 247.196 195.564 275.715 179.231 301.701C173.578 310.688 167.405 326.501 161.685 333.554C160.032 335.594 155.792 338.514 153.699 340.54C150.019 331.341 146.365 321.594 142.725 312.594C178.418 266.435 211.951 217.943 238.537 165.877C251.11 170.784 264.23 176.09 276.456 180.85Z" fill="#FDC422"/>
<path d="M188.631 145.931C171.992 188.143 149.232 227.969 122.766 264.702C117.326 251.755 112.086 238.796 106.793 225.783C123.566 195.33 136.526 162.557 145.712 128.971C160.032 134.558 174.312 140.357 188.631 145.944V145.931Z" fill="#FDC422"/>
<path d="M229.551 161.89C204.524 211.916 171.725 257.649 138.726 302.608C138.672 302.461 137.126 301.861 136.526 300.355C134.606 295.528 126.886 278.368 127.739 274.662C155.739 236.036 179.925 194.343 197.604 149.904C207.951 153.944 218.991 157.77 229.537 161.877L229.551 161.89Z" fill="#FDC422"/>
<path d="M319.376 198.823C318.922 199.383 318.976 200.89 317.442 202.356C268.403 249.315 214.684 297.021 163.685 342.047C161.872 343.647 157.498 345.74 156.685 346.527L161.672 333.554C167.392 326.501 173.565 310.688 179.218 301.701C195.551 275.715 221.204 247.196 246.497 229.756C251.683 226.183 259.763 221.849 265.457 218.783C281.976 209.85 300.696 201.543 319.349 198.823H319.376Z" fill="#1F1F1F"/>
<path d="M136.726 125.958C127.739 156.157 117.113 186.237 101.793 213.783C96.6729 201.196 91.9264 188.423 86.8198 175.863C93.7797 155.157 97.5796 133.584 100.793 111.985C112.726 116.531 124.766 121.291 136.726 125.958Z" fill="#FDC422"/>
<path d="M357.295 211.796C354.975 213.729 348.815 216.729 345.788 216.836C343.842 216.903 336.802 214.663 335.642 213.503C335.189 213.036 330.389 203.196 329.869 201.81C319.749 174.543 324.375 115.518 327.362 85.5718C328.709 72.0787 331.189 58.6523 332.349 45.1458C336.802 46.7591 340.762 49.1724 345.308 50.6391C363.321 56.479 382.601 55.5723 401.214 54.119C397.641 86.6918 392.548 120.451 383.961 152.144C379.561 168.37 371.001 196.13 360.295 208.823C360.001 209.183 357.642 211.529 357.295 211.823V211.796ZM384.241 75.0653C370.775 71.5587 352.802 66.5188 339.002 70.2921C337.389 70.732 337.175 71.5587 336.335 72.0787C335.495 72.5987 333.669 72.9453 333.335 74.0787C332.749 76.1186 333.562 80.8385 333.335 83.5585C330.495 115.305 323.935 170.57 334.349 199.836C334.802 201.09 334.442 202.383 335.469 204.183C341.015 213.836 352.908 212.089 358.188 203.17C358.908 201.956 358.948 200.436 359.308 199.836C376.015 171.93 378.934 145.131 387.254 114.998C387.548 113.918 389.854 112.225 390.228 109.398C390.561 106.851 389.201 104.718 389.254 104.011C389.468 100.771 390.401 95.1716 391.254 92.0383C392.841 86.1451 396.187 81.1319 396.961 74.292C397.414 70.2521 398.427 63.2122 392.681 63.1322C386.348 63.0388 385.268 70.332 384.268 75.0653H384.241Z" fill="#8FB6F1"/>
<path d="M238.537 165.89C211.951 217.956 178.418 266.435 142.725 312.608C141.445 309.448 139.992 305.768 138.739 302.621C171.738 257.662 204.524 211.929 229.564 161.904C232.79 163.157 235.924 164.877 238.55 165.89H238.537Z" fill="#F47356"/>
<path d="M452.106 217.783L455.986 235.622L417.307 254.315L435.093 308.021C434.253 320.608 407.107 331.807 402.667 317.648C398.681 304.928 419.147 297.021 429.16 298.621L409.121 236.396L452.106 217.783Z" fill="white"/>
<path d="M197.618 149.917C179.951 194.356 155.752 236.049 127.752 274.675C124.512 274.342 123.979 267.568 122.766 264.689C149.245 227.956 171.992 188.13 188.631 145.917C191.845 147.171 195.005 148.891 197.618 149.904V149.917Z" fill="#F47356"/>
<path d="M145.712 128.958C136.526 162.544 123.566 195.303 106.793 225.769C105.166 221.769 103.433 217.796 101.806 213.796C117.126 186.25 127.752 156.17 136.739 125.971C139.392 127.011 142.765 127.811 145.725 128.971L145.712 128.958Z" fill="#F47356"/>
<path d="M285.443 183.85C297.229 188.45 309.522 192.356 321.376 196.836C322.362 199.663 319.602 198.543 319.376 198.823C300.723 201.543 282.003 209.863 265.483 218.783L285.443 183.85Z" fill="#FDC422"/>
<path d="M294.296 270.795C308.202 291.981 295.283 319.621 268.47 315.581L279.47 310.128C289.403 301.821 284.176 292.541 276.99 284.621C275.376 282.848 272.163 282.368 272.456 279.675C276.843 280.782 292.283 269.635 294.296 270.808V270.795Z" fill="white"/>
<path d="M186.618 108.998L178.591 98.5715C165.698 90.585 158.578 102.558 152.192 111.971C149.139 105.998 143.165 100.745 139.659 95.5716C137.232 91.9983 141.925 89.7184 145.005 87.8384C163.698 76.4386 186.751 86.2651 186.605 108.985L186.618 108.998Z" fill="white"/>
<path d="M441.08 124.011C454.186 145.611 442.333 172.397 415.187 168.877L426.187 163.424C438.267 153.571 428.507 141.624 419.2 134.464L441.093 124.024L441.08 124.011Z" fill="white"/>
<path d="M413.187 167.89L406.361 173.517C400.561 183.957 408.614 193.983 419.174 196.316L404.721 209.81C382.974 198.783 386.841 166.464 413.174 167.89H413.187Z" fill="#8CEA2E"/>
<path d="M265.483 315.568C251.137 322.741 258.483 340.447 272.47 343.02C269.283 345.527 266.363 348.154 263.47 350.98C261.577 352.834 260.243 357.194 257.203 356.38C244.457 347.394 237.39 330.487 251.163 318.714C253.923 316.354 263.137 311.541 265.483 315.554V315.568Z" fill="#8CEA2E"/>
<path d="M229.417 111.145C224.204 133.758 194.231 138.171 186.618 114.505C188.831 112.558 190.658 116.065 192.351 116.758C204.018 121.544 212.911 112.318 213.591 101.012L229.417 111.131V111.145Z" fill="#8CEA2E"/>
<path d="M100.806 111.985C97.5929 133.571 93.793 155.144 86.8331 175.863C84.8198 170.89 81.8866 165.904 79.8466 160.89C81.7266 160.237 81.8732 158.49 82.3532 156.917C87.4064 140.651 88.2998 124.491 90.8197 107.998C94.553 107.705 97.9529 110.905 100.806 111.985Z" fill="#F47356"/>
<path d="M86.8331 298.621C87.0331 298.248 86.7798 296.821 87.3665 295.701C89.0198 292.568 91.8064 289.808 93.3797 286.581L128.819 304.208L100.793 348.527L98.8329 347.06L120.726 315.088L91.513 299.408C90.0331 298.675 88.4464 298.501 86.8198 298.635C85.6598 300.741 84.8198 303.368 83.1399 305.368L78.8466 309.608L84.9932 298.835C85.5398 298.301 86.2065 298.688 86.8198 298.635L86.8331 298.621Z" fill="white"/>
<path d="M281.443 31.1461H280.443C279.696 28.1595 279.376 24.5729 278.47 21.6263C278.123 20.493 279.176 19.8663 276.963 20.1596L243.617 32.2394C243.364 32.5461 243.337 36.426 243.51 37.1327H242.51C241.297 31.8128 239.897 26.4795 238.924 21.1196L274.99 7.17321C276.363 7.03988 276.75 7.78653 277.23 8.89318C278.616 12.0931 280.07 21.6396 281.176 25.9329C281.643 27.7195 281.11 29.8528 281.43 31.1328L281.443 31.1461Z" fill="white"/>
<path d="M285.443 183.85L265.483 218.783C259.79 221.863 251.697 226.196 246.524 229.756L276.47 180.85C278.976 181.823 282.203 182.57 285.456 183.85H285.443Z" fill="#F47356"/>
<path d="M59.887 262.689V237.742L89.8064 245.222C81.3132 249.662 71.9134 257.955 63.4336 261.742C62.2469 262.275 61.4603 263.075 59.887 262.689Z" fill="#F47356"/>
<path d="M443.133 326.567L472.079 334.061L469.746 336.727L443.133 352.514V326.567Z" fill="#FDC422"/>
<path d="M310.376 139.957L309.762 141.997C306.296 142.677 288.923 153.357 287.429 151.917L282.443 122.971L310.376 139.957Z" fill="#8FB6F1"/>
<path d="M288.429 56.1057C290.749 66.8255 295.856 72.6387 281.51 75.6253C267.937 78.4519 264.843 66.2121 273.403 63.5455C277.976 62.1189 283.816 63.3988 288.416 64.0922C287.416 61.9722 287.869 58.9189 287.416 57.119L288.416 56.119L288.429 56.1057Z" fill="white"/>
<path d="M252.497 71.0654C253.217 74.3586 255.35 79.8385 255.457 82.6785C255.763 90.3717 232.03 94.0916 232.524 83.6385C232.884 75.9586 247.404 75.9453 252.483 79.0519C251.737 76.7186 252.003 73.0787 251.497 71.0654H252.497Z" fill="white"/>
<path d="M95.233 352.154C95.473 352.474 96.273 352.5 96.7263 352.607L96.6996 353.874C91.833 368.473 66.7002 344.714 79.5399 340.74C87.9265 338.154 91.3664 346.98 95.233 352.154Z" fill="white"/>
<path d="M209.751 354.554C214.464 354.554 218.284 350.733 218.284 346.02C218.284 341.308 214.464 337.487 209.751 337.487C205.038 337.487 201.218 341.308 201.218 346.02C201.218 350.733 205.038 354.554 209.751 354.554Z" fill="#8FB6F1"/>
<path d="M367.121 292.008C371.827 292.008 375.641 288.194 375.641 283.488C375.641 278.783 371.827 274.968 367.121 274.968C362.416 274.968 358.602 278.783 358.602 283.488C358.602 288.194 362.416 292.008 367.121 292.008Z" fill="#F47356"/>
<path d="M192.365 47.5325C197.063 47.5325 200.871 43.724 200.871 39.026C200.871 34.3279 197.063 30.5194 192.365 30.5194C187.667 30.5194 183.858 34.3279 183.858 39.026C183.858 43.724 187.667 47.5325 192.365 47.5325Z" fill="white"/>
<path d="M252.497 71.0654H251.497C248.737 60.0389 245.124 48.5858 242.51 37.1327H243.51C246.39 48.2125 249.963 59.5056 252.497 71.0654Z" fill="white"/>
<path d="M288.429 56.1057L287.429 57.1056C285.323 48.6391 282.59 39.8126 280.443 31.1594H281.443C283.47 39.1726 286.576 47.5591 288.429 56.1057Z" fill="white"/>
<path d="M156.699 346.527C156.525 346.7 156.819 347.94 156.699 348.514H155.725C155.085 346.274 154.512 342.514 153.712 340.54C155.805 338.514 160.045 335.594 161.698 333.554L156.712 346.527H156.699Z" fill="#F47356"/>
<path d="M97.8329 351.727C98.5104 351.727 99.0596 351.178 99.0596 350.5C99.0596 349.823 98.5104 349.274 97.8329 349.274C97.1555 349.274 96.6063 349.823 96.6063 350.5C96.6063 351.178 97.1555 351.727 97.8329 351.727Z" fill="white"/>
<path d="M401.201 50.1324C402.641 51.6124 401.094 51.9324 399.721 52.1057C380.814 54.4657 356.508 54.0657 338.949 45.9992C337.389 45.2792 334.122 43.6792 333.349 42.1326C356.495 38.066 380.161 38.8793 401.201 50.1191V50.1324Z" fill="#8FB6F1"/>
<path d="M384.241 75.0653C383.694 77.6919 383.334 79.2652 383.241 82.0518C377.121 83.1985 370.135 83.5585 363.895 82.9318C355.642 82.0918 348.295 78.0252 340.309 76.5719C352.948 84.5718 368.628 86.2784 383.228 84.0518C383.414 89.625 384.281 97.3716 391.214 92.0383C390.374 95.1716 389.428 100.772 389.214 104.011C380.641 100.558 377.441 118.358 387.214 114.985C378.894 145.117 375.975 171.904 359.268 199.823C350.468 203.676 343.095 204.063 334.322 199.823C323.922 170.557 330.482 115.291 333.309 83.5451C333.549 80.8385 332.735 76.1053 333.309 74.0653H336.309V72.0654C337.149 71.5587 337.362 70.7187 338.975 70.2787C352.775 66.5055 370.748 71.5454 384.214 75.052L384.241 75.0653ZM339.335 76.052L338.322 73.0787H337.349V76.0653H339.335V76.052Z" fill="#F47356"/>
<path d="M384.241 75.0653C385.241 70.3321 386.321 63.0389 392.654 63.1322C398.401 63.2122 397.387 70.2521 396.934 74.292C396.161 81.1319 392.828 86.1318 391.228 92.0383C384.294 97.3716 383.428 89.625 383.241 84.0518C383.214 83.3985 383.214 82.7185 383.241 82.0518C383.334 79.2652 383.681 77.6919 384.241 75.0653Z" fill="white"/>
<path d="M359.295 199.823C358.935 200.423 358.895 201.943 358.175 203.156C352.908 212.076 341.002 213.823 335.455 204.17C334.429 202.37 334.789 201.076 334.335 199.823C343.122 204.063 350.495 203.676 359.281 199.823H359.295Z" fill="#1F1F1F"/>
<path d="M389.228 104.011C389.174 104.718 390.534 106.851 390.201 109.398C389.828 112.225 387.534 113.918 387.228 114.998C377.455 118.371 380.654 100.558 389.228 104.025V104.011Z" fill="white"/>
<path d="M336.335 72.0654V74.0653H333.335C333.655 72.932 335.455 72.5987 336.335 72.0654Z" fill="#F47356"/>
<path d="M383.241 82.0518C383.214 82.7185 383.214 83.3852 383.241 84.0518C368.628 86.2784 352.948 84.5718 340.322 76.5719C348.308 78.0253 355.655 82.1052 363.908 82.9318C370.148 83.5585 377.135 83.1985 383.254 82.0518H383.241Z" fill="white"/>
<path d="M339.335 76.052H337.335L337.349 73.0787H338.322L339.335 76.052Z" fill="#F47356"/>
</g>
<defs>
<clipPath id="clip0_306_274">
<rect width="486.047" height="369.487" fill="white"/>
</clipPath>
</defs>
</svg>
