<svg width="337" height="337" viewBox="0 0 337 337" fill="none" xmlns="http://www.w3.org/2000/svg">
<path d="M164.853 0.576351C298.243 -1.85037 382.445 147.006 309.203 259.689C241.481 363.865 87.7843 361.478 23.9161 254.702C-42.1122 144.313 36.9297 2.89641 164.853 0.576351ZM250.895 59.1777C215.921 34.6705 173.933 25.5636 132.132 36.7105C38.9164 61.5511 0.328843 176.287 60.2636 252.329L250.895 59.1777ZM310.776 111.059C306.536 85.6584 286.082 62.4445 265.002 48.5508C262.908 47.1641 245.801 37.2439 244.908 38.2039C244.095 39.0973 244.708 40.5506 246.161 41.4573C252.868 45.6708 260.202 48.4441 267.175 53.3509C291.536 70.4713 295.549 83.1383 308.296 108.046C308.883 109.192 309.216 110.806 310.763 111.059H310.776ZM272.562 83.2316L83.3042 275.116C144.786 325.584 236.428 310.57 281.069 245.529C311.096 201.781 312.51 144.433 285.642 98.792C284.016 96.0453 277.322 85.525 275.415 84.0583C274.495 83.3383 273.802 82.805 272.562 83.245V83.2316ZM27.3295 98.0853C25.5428 95.9653 22.836 104.232 22.596 104.819C12.4891 129.819 4.71561 174.754 12.0758 200.661C12.6225 202.568 14.2358 208.088 15.8626 208.861C17.9693 209.248 17.4892 208.075 17.1559 206.581C16.4359 203.381 14.7159 200.181 14.0092 196.741C9.70241 175.527 13.0091 151.113 18.0226 130.206C20.6227 119.353 24.9828 108.899 27.3295 98.0987V98.0853ZM315.763 123.046L313.843 125.459L318.256 140.993C322.257 135.86 317.03 128.339 315.763 123.046ZM196 129.033C192.733 128.606 190.547 131.899 188.507 134.006C165.426 157.793 144.199 183.487 120.612 206.835L119.158 210.861C121.038 211.288 121.518 209.795 122.652 208.875C144.839 190.594 164.239 160.22 186.547 141.02L196.014 129.033H196ZM112.158 213.875L104.158 222.328L103.185 226.835L111.198 218.395L112.145 213.875H112.158ZM270.855 280.743C269.469 279.236 261.628 289.597 260.402 290.743C237.388 312.117 209.227 319.237 178.533 320.664C177 320.731 174.586 319.717 175.053 322.144C176.253 323.931 177.533 323.677 179.386 323.584C209.801 322.144 242.708 313.264 264.415 290.757C265.642 289.477 272.029 282.023 270.855 280.743Z" fill="#F47356"/>
<path d="M27.3294 98.0853C24.9827 108.886 20.6226 119.339 18.0225 130.193C13.0224 151.1 9.71567 175.514 14.0091 196.728C14.7025 200.168 16.4225 203.368 17.1558 206.568C17.4892 208.061 17.9692 209.248 15.8625 208.848C14.2358 208.075 12.6224 202.554 12.0757 200.648C4.70221 174.741 12.4757 129.819 22.596 104.805C22.836 104.205 25.5294 95.952 27.3294 98.072V98.0853Z" fill="#1F1F1F"/>
<path d="M196 129.033L186.533 141.02C164.239 160.22 144.839 190.594 122.638 208.875C121.518 209.808 121.025 211.301 119.145 210.861L120.598 206.835C144.186 183.487 165.413 157.793 188.493 134.006C190.533 131.899 192.72 128.606 195.987 129.033H196Z" fill="#1F1F1F"/>
<path d="M270.855 280.743C272.029 282.023 265.642 289.477 264.415 290.757C242.708 313.264 209.801 322.144 179.386 323.584C177.546 323.677 176.253 323.917 175.053 322.144C174.586 319.717 177 320.731 178.533 320.664C209.227 319.237 237.401 312.117 260.402 290.743C261.628 289.597 269.469 279.236 270.855 280.743Z" fill="#1F1F1F"/>
<path d="M310.776 111.059C309.229 110.806 308.896 109.192 308.309 108.046C295.562 83.1383 291.536 70.4847 267.188 53.3509C260.215 48.4442 252.881 45.6708 246.175 41.4573C244.735 40.5506 244.108 39.0839 244.921 38.2039C245.815 37.2306 262.908 47.1641 265.015 48.5508C286.082 62.4445 306.549 85.6584 310.789 111.059H310.776Z" fill="#ECECEC"/>
<path d="M315.763 123.046C317.03 128.339 322.256 135.86 318.256 140.993L313.843 125.459L315.763 123.046Z" fill="#ECECEC"/>
<path d="M112.158 213.875L111.212 218.395L103.198 226.835L104.158 222.328L112.158 213.875Z" fill="#1F1F1F"/>
<path d="M256.935 191.861L277.842 196.901C278.775 198.181 271.215 205.181 269.869 206.381C267.989 208.061 265.322 210.141 262.882 210.875L275.909 227.328C275.935 231.435 260.295 233.422 256.882 233.809C255.495 235.209 265.335 252.982 261.895 255.316C259.722 256.796 243.548 251.116 239.921 250.782L236.881 267.716C230.414 269.889 223.361 255.902 219.481 255.796C215.694 256.462 200.734 271.103 198 268.756L195.987 246.809C192.347 246.569 170.6 243.915 170.04 241.289L182.947 223.475C182.453 220.675 166.319 213.741 167.053 207.888L187.907 202.768C189.467 200.514 182.76 183.074 186.16 179.061L209.334 182.834L218.521 162.887C222.694 162.58 231.214 175.847 234.654 176.781C239.441 178.087 252.908 168.5 256.962 171.367C259.948 174.234 255.988 190.874 256.935 191.861ZM228.548 188.047C226.961 188.434 223.054 196.581 222.094 198.541C220.534 201.741 214.067 216.035 213.974 218.488C213.827 221.982 223.867 227.782 226.921 226.368C228.908 225.448 247.508 201.874 247.775 200.221C246.441 196.741 231.228 187.421 228.548 188.061V188.047ZM208.68 225.048C201.974 227.048 200.707 238.969 208.227 242.035C224.521 248.702 225.908 219.915 208.68 225.048Z" fill="#F47356"/>
<path d="M148.079 241.809C149.399 248.049 150.439 251.769 157.479 252.716C161.319 255.422 152.199 258.342 151.132 259.329C148.612 261.663 148.519 267.649 144.105 267.756C143.639 267.409 141.839 259.943 140.879 258.996C139.252 257.396 132.639 258.156 133.079 255.262C133.679 251.369 139.305 251.169 141.545 248.742C143.785 246.316 143.425 240.835 148.066 241.809H148.079ZM147.092 246.796C144.079 246.182 145.012 249.902 142.639 251.822C141.212 252.982 138.919 253.476 137.119 253.796C137.732 256.716 141.705 255.156 142.945 255.929L145.106 263.756C147.252 262.743 147.239 258.929 149.039 257.209C150.226 256.076 151.466 255.676 153.079 255.756C153.692 252.622 149.999 253.929 148.186 251.169C147.372 249.929 147.132 248.249 147.079 246.782L147.092 246.796Z" fill="#1F1F1F"/>
<path d="M244.228 131.339C251.695 123.166 264.628 136.113 255.855 143.46C248.228 149.847 237.161 139.073 244.228 131.339ZM248.628 132.206C243.921 133.579 243.721 141.126 248.415 142.02C259.442 144.113 256.975 129.766 248.628 132.206Z" fill="#1F1F1F"/>
<path d="M77.2774 178.887C74.744 176.754 74.984 136.66 75.1973 130.486C75.6373 117.392 76.664 101.605 78.2507 88.6184C78.5974 85.765 80.7841 70.5647 82.1708 69.5913C86.3043 66.6979 107.371 76.9248 112.532 79.2715C131.199 87.7251 154.133 99.3387 171.373 110.259C174.08 111.966 183.747 117.232 182.933 120.353C182.04 123.753 162.919 134.713 158.759 137.193C139.892 148.447 118.865 159.54 99.2246 169.474C96.0512 171.074 79.0374 180.367 77.2907 178.887H77.2774ZM88.891 77.2315C85.2109 78.3782 83.4108 96.712 83.1842 100.539C82.2775 115.859 82.4508 136.113 83.1842 151.527C83.4108 156.38 84.3042 162.7 85.1709 167.54C86.9843 168.874 98.2779 163.354 100.865 162.14C108.251 158.673 116.518 154.06 123.825 150.167C139.346 141.873 155.786 132.766 169.6 122.059C171.813 117.086 143.332 101.405 138.799 98.912C132.092 95.2319 93.5711 75.7648 88.891 77.2315Z" fill="#FDC422"/>
<path d="M163.079 69.138C163.413 69.6047 169.026 64.0845 170.053 65.1512C172.093 67.2713 167.226 68.818 167.066 70.1247H171.066V73.1247H165.066C171.36 78.7115 168.933 82.6316 163.079 76.1248L160.586 83.125L160.066 75.1248L152.092 79.1116C151.199 75.6448 154.586 75.0581 157.066 74.1114L150.092 73.1247C149.959 69.1647 154.306 70.1513 157.079 70.1247L154.092 64.1512L160.066 68.138L161.559 61.1645C164.053 63.1378 162.879 66.4579 163.079 69.138Z" fill="#1F1F1F"/>
<path d="M54.9834 166.167C70.2371 161.607 69.6771 186.074 55.2234 181.474C48.3699 179.287 49.0499 167.927 54.9834 166.167ZM55.9834 169.14C51.9967 170.34 51.97 178.141 56.8235 178.927C66.3437 180.474 65.397 166.3 55.9834 169.14Z" fill="#1F1F1F"/>
<path d="M147.092 246.796C147.146 248.262 147.386 249.942 148.199 251.182C150.012 253.942 153.706 252.636 153.092 255.769C151.479 255.689 150.239 256.089 149.052 257.222C147.252 258.929 147.266 262.743 145.119 263.769L142.959 255.942C141.719 255.169 137.745 256.729 137.132 253.809C138.932 253.489 141.226 252.996 142.652 251.836C145.012 249.902 144.079 246.196 147.106 246.809L147.092 246.796Z" fill="#ECECEC"/>
<path d="M88.8909 77.2315C93.571 75.7648 132.079 95.2453 138.799 98.912C143.332 101.392 171.826 117.072 169.6 122.059C155.786 132.766 139.345 141.873 123.825 150.167C116.532 154.06 108.265 158.687 100.865 162.14C98.2778 163.354 86.9842 168.874 85.1708 167.54C84.3041 162.714 83.4108 156.38 83.1841 151.527C82.4508 136.126 82.2774 115.859 83.1841 100.539C83.4108 96.6987 85.2108 78.3782 88.8909 77.2315ZM167.066 122.019C166.039 118.766 162.933 117.192 160.386 115.246C147.119 105.059 124.345 93.8186 108.851 86.9384C106.011 85.685 91.1176 78.9249 89.3176 80.2183C84.9975 92.4452 86.4509 105.766 86.2642 118.593C86.1975 122.739 86.2375 126.366 86.2642 130.486C86.3042 135.286 85.5175 163.42 87.2242 164.954C115.278 153.567 140.945 137.086 167.066 122.019Z" fill="#1F1F1F"/>
<path d="M167.066 122.019C140.945 137.086 115.292 153.58 87.2242 164.954C85.5175 163.407 86.3042 135.286 86.2642 130.486C86.2375 126.366 86.1975 122.726 86.2642 118.592C86.4509 105.765 84.9975 92.4452 89.3176 80.2182C91.131 78.9249 106.025 85.685 108.851 86.9384C124.358 93.8185 147.132 105.059 160.386 115.246C162.933 117.192 166.039 118.766 167.066 122.019ZM141.959 124.873C143.132 122.833 132.692 106.779 131.172 103.499C130.585 103.139 125.945 104.739 125.372 105.299C123.945 106.686 123.078 123.219 124.172 124.006L133.545 121.126L136.132 127.019L141.959 124.859V124.873ZM115.998 114.179C96.3311 116.472 109.478 126.779 114.332 136.833L115.638 137.1C118.065 136.633 125.105 134.166 125.145 131.566L115.998 114.179ZM106.198 143.993C108.225 144.02 112.211 141.833 112.011 139.686C111.918 138.66 103.331 123.433 102.051 121.673C99.8778 118.659 96.4644 121.513 94.3577 123.686C94.9044 134.5 87.8509 147.033 104.171 137.006L106.198 143.993Z" fill="#FDC422"/>
<path d="M114.211 129.993L111.238 122.646L114.678 120.099L118.892 127.553C118.025 129.406 116.278 130.419 114.211 129.993Z" fill="#FDC422"/>
</svg>
