<svg width="476" height="511" viewBox="0 0 476 511" fill="none" xmlns="http://www.w3.org/2000/svg">
<path d="M354.493 455.1C357.773 469.006 367.133 477.513 361.533 492.579C357.226 504.166 346.933 506.819 336.533 510.992H325.56C309.893 505.832 306.4 490.766 300.614 477.059C290.387 452.82 281.094 427.62 271.667 403.207C274.027 403.874 275.507 401.674 276.654 401.207C288.907 396.234 306.787 387.927 318.573 384.234C319.507 383.941 323.28 383.167 323.907 383.341L354.506 455.1H354.493Z" fill="#1F1F1F"/>
<path d="M295.614 16.9597C297.2 23.2663 299.267 29.5329 300.614 35.9194C305.067 31.1862 311.04 27.3062 315.573 22.9463C390.572 47.9726 449.611 113.052 468.598 189.797C494.424 294.235 447.318 402.54 354.493 455.1L323.893 383.341C323.267 383.167 319.493 383.941 318.56 384.234L297.547 331.848C297.734 329.688 305.56 325.888 307.893 324.168C410.372 248.463 379.386 89.5053 254.694 64.359C97.35 32.6128 14.5513 244.303 148.989 327.768C181.429 347.901 218.055 353.528 255.561 347.448L276.654 401.207C275.507 401.674 274.014 403.887 271.667 403.207C281.094 427.62 290.387 452.806 300.614 477.059C264.774 487.272 226.415 487.339 189.629 481.006L205.962 404.46L194.095 401.927L177.855 478.046C161.802 473.246 145.816 467.859 130.87 459.993L164.096 429.98L156.202 421.247L119.91 454.033C100.417 443.006 81.1503 428.407 65.5505 412.194C60.5639 407.007 54.9774 400.3 51.0841 394.447C71.3105 395.274 89.0702 381.114 92.7501 361.208C96.4301 341.301 84.9369 321.715 65.7505 315.248C46.5642 308.782 25.5512 317.395 16.4313 335.461C-15.3549 254.289 -0.421777 159.771 56.084 93.8119C56.9773 94.5319 62.0706 95.8919 63.5239 95.8652C72.4438 95.6785 77.3904 84.5587 71.0571 77.8521C128.976 20.4263 216.148 -3.78661 295.614 16.9597ZM428.638 152.358L406.305 170.171L424.038 192.41L446.371 174.597L428.638 152.358ZM54.4574 247.569C54.4574 239.29 47.7375 232.57 39.4576 232.57C31.1777 232.57 24.4578 239.29 24.4578 247.569C24.4578 255.849 31.1777 262.569 39.4576 262.569C47.7375 262.569 54.4574 255.849 54.4574 247.569ZM445.318 278.462L407.439 258.943L403.452 258.529L374.466 356.288L425.358 352.301C427.212 350.648 407.345 329.662 406.399 326.368L441.331 314.862C441.731 313.075 420.985 296.302 418.025 293.502C417.185 292.715 417.105 292.822 417.385 291.435C425.838 287.769 435.798 284.702 443.905 280.529C444.931 279.996 445.798 281.062 445.318 278.462Z" fill="#8FB6F1"/>
<path d="M93.4301 353.808C93.4301 331.342 75.217 313.129 52.7507 313.129C30.2844 313.129 12.0714 331.342 12.0714 353.808C12.0714 376.274 30.2844 394.487 52.7507 394.487C75.217 394.487 93.4301 376.274 93.4301 353.808ZM23.6178 351.261C22.5912 362.928 28.6178 374.074 38.9376 379.594C50.3108 385.674 64.3239 383.581 73.4171 374.448C82.5103 365.314 84.5369 351.288 78.4037 339.955C72.2704 328.622 59.4306 322.635 46.8041 325.248C34.1777 327.862 24.7512 338.435 23.6178 351.275V351.261Z" fill="#F47356"/>
<path d="M194.092 401.959L175.557 488.788L187.422 491.321L205.958 404.492L194.092 401.959Z" fill="#8CEA2E"/>
<path d="M156.22 421.24L110.003 462.985L117.895 471.722L164.112 429.977L156.22 421.24Z" fill="#8CEA2E"/>
<path d="M295.614 16.9597C294.2 11.3598 292.774 5.66658 291.627 0L327.546 10.4665C323.187 14.1998 319.667 18.9997 315.573 22.9463C311.053 27.3062 305.067 31.1862 300.614 35.9194C299.267 29.5329 297.2 23.2663 295.614 16.9597Z" fill="#8CEA2E"/>
<path d="M71.0571 77.8388C77.4037 84.5587 72.4438 95.6652 63.5239 95.8519C62.0706 95.8785 56.9773 94.5186 56.084 93.7986C53.2307 91.5186 52.5107 84.9854 53.3107 81.5321C55.044 74.0389 66.0972 72.5722 71.0571 77.8388Z" fill="#F47356"/>
<path d="M318.56 384.234C306.787 387.914 288.894 396.221 276.641 401.207L255.548 347.448C218.028 353.528 181.402 347.901 148.976 327.768C14.5513 244.303 97.35 32.6129 254.694 64.359C379.386 89.5186 410.372 248.476 307.893 324.168C305.56 325.902 297.734 329.688 297.547 331.848L318.56 384.234ZM220.735 91.252C216.055 91.4519 211.388 91.9453 206.775 92.7186C192.149 95.1719 178.135 100.425 165.522 108.225C116.256 138.638 97.4567 201.05 121.723 253.609C127.99 267.183 136.843 279.382 147.789 289.556C151.269 292.782 154.936 295.782 158.776 298.555C175.509 310.609 195.189 317.915 215.735 319.702C227.108 320.688 238.575 319.968 249.734 317.568C254.174 316.608 258.561 315.395 262.854 313.915C297.587 301.982 324.48 274.116 335.186 238.996C345.893 203.877 339.08 165.744 316.907 136.478C314.04 132.705 310.947 129.105 307.64 125.705C299.774 117.638 290.76 110.772 280.894 105.345C262.507 95.2252 241.708 90.3453 220.748 91.252H220.735Z" fill="#FDC422"/>
<path d="M445.318 278.462C445.798 281.062 444.931 279.996 443.905 280.529C435.798 284.702 425.838 287.769 417.385 291.435C417.105 292.822 417.185 292.702 418.025 293.502C420.998 296.302 441.731 313.075 441.331 314.862L406.399 326.368C407.345 329.662 427.198 350.648 425.358 352.301L374.466 356.288L403.452 258.529L407.439 258.943L445.318 278.462Z" fill="white"/>
<path d="M428.643 152.353L406.306 170.171L424.041 192.403L446.378 174.585L428.643 152.353Z" fill="#FDC422"/>
<path d="M39.4576 262.569C47.7417 262.569 54.4574 255.854 54.4574 247.57C54.4574 239.285 47.7417 232.57 39.4576 232.57C31.1734 232.57 24.4578 239.285 24.4578 247.57C24.4578 255.854 31.1734 262.569 39.4576 262.569Z" fill="white"/>
<path d="M38.9376 379.594L23.6179 351.261C24.7512 338.421 34.1777 327.835 46.8042 325.235C59.4306 322.622 72.2704 328.608 78.4037 339.941C84.5369 351.275 82.5103 365.301 73.4171 374.434C64.3239 383.567 50.3108 385.661 38.9376 379.581V379.594Z" fill="#C6BCF8"/>
<path d="M38.9376 379.594C28.6178 374.074 22.5779 362.928 23.6178 351.261L38.9376 379.594Z" fill="#C6BCF8"/>
<path d="M280.881 105.345L215.735 319.702C195.189 317.915 175.509 310.609 158.776 298.555L220.735 91.2519C241.694 90.3453 262.507 95.2252 280.881 105.345Z" fill="white"/>
<path d="M307.64 125.705L249.748 317.568C238.588 319.968 227.121 320.688 215.748 319.702L280.894 105.345C290.76 110.785 299.774 117.638 307.64 125.705Z" fill="#8FB6F1"/>
<path d="M206.775 92.7186L147.789 289.556C136.843 279.396 127.976 267.183 121.723 253.609L165.522 108.225C178.135 100.438 192.149 95.1719 206.775 92.7186Z" fill="white"/>
<path d="M262.854 313.915L316.907 136.465C339.093 165.731 345.893 203.864 335.186 238.983C324.48 274.102 297.587 301.982 262.854 313.902V313.915Z" fill="#8FB6F1"/>
<path d="M165.522 108.225L121.723 253.609C97.4701 201.037 116.27 138.638 165.522 108.225Z" fill="#8FB6F1"/>
<path d="M220.735 91.252L158.776 298.555C154.922 295.782 151.256 292.782 147.789 289.556L206.775 92.7186C211.402 91.9453 216.055 91.452 220.735 91.252Z" fill="#8FB6F1"/>
<path d="M316.907 136.478L262.854 313.929C258.561 315.408 254.174 316.622 249.734 317.582L307.627 125.718C310.933 129.118 314.04 132.705 316.893 136.491L316.907 136.478Z" fill="white"/>
</svg>
