<svg width="27" height="27" viewBox="0 0 27 27" fill="none" xmlns="http://www.w3.org/2000/svg">
<g clip-path="url(#clip0_115_571)">
<path d="M27 13.5005C27 20.9564 20.9553 27.0011 13.4995 27.0011C6.04359 27.0011 0 20.9564 0 13.5005C0 6.04465 6.04465 0 13.5005 0C20.9564 0 27.0011 6.04465 27.0011 13.5005H27ZM25.8546 13.4942C25.8546 6.6701 20.3225 1.13805 13.4984 1.13805C6.67432 1.13805 1.14122 6.6701 1.14122 13.4942C1.14122 20.3183 6.67327 25.8503 13.4974 25.8503C20.3215 25.8503 25.8535 20.3183 25.8535 13.4942H25.8546Z" fill="#1F1F1F"/>
<path d="M25.8546 13.4942C25.8546 20.3183 20.3225 25.8503 13.4984 25.8503C6.67433 25.8503 1.14122 20.3183 1.14122 13.4942C1.14122 6.67011 6.67327 1.137 13.4984 1.137C20.3236 1.137 25.8546 6.66905 25.8546 13.4931V13.4942ZM11.813 10.7044C11.7012 6.94012 6.30623 6.94012 6.17017 10.7044H7.33037C7.381 8.46104 10.6338 8.47791 10.6528 10.7044H11.813ZM20.8309 10.7044C20.6927 6.93801 15.2978 6.94645 15.1881 10.7044H16.3483C16.3673 8.47791 19.6201 8.46104 19.6707 10.7044H20.8309ZM7.33037 15.187H6.17017C6.19548 20.2297 11.1432 23.7746 15.9538 22.0966C18.8364 21.0914 20.8488 18.2521 20.8309 15.187H19.6707C19.7044 18.2004 17.3967 20.8773 14.416 21.2971C10.6623 21.8255 7.33459 18.9693 7.33037 15.187Z" fill="#FDC422"/>
<path d="M7.33037 15.187C7.33564 18.9693 10.6623 21.8255 14.416 21.2971C17.3956 20.8773 19.7034 18.2004 19.6707 15.187H20.8309C20.8488 18.2521 18.8364 21.0914 15.9538 22.0966C11.1432 23.7746 6.19548 20.2297 6.17017 15.187H7.33037Z" fill="#1F1F1F"/>
<path d="M11.813 10.7044H10.6528C10.6338 8.47791 7.38099 8.46103 7.33037 10.7044H6.17017C6.30623 6.94011 11.7012 6.94011 11.813 10.7044Z" fill="#1F1F1F"/>
<path d="M20.8309 10.7044H19.6707C19.6201 8.46103 16.3673 8.47791 16.3483 10.7044H15.1881C15.2978 6.94644 20.6927 6.938 20.8309 10.7044Z" fill="#1F1F1F"/>
</g>
<defs>
<clipPath id="clip0_115_571">
<rect width="27" height="27" fill="white"/>
</clipPath>
</defs>
</svg>
